<?xml version="1.0" standalone="no"?>
<!DOCTYPE svg PUBLIC "-//W3C//DTD SVG 20010904//EN"
 "http://www.w3.org/TR/2001/REC-SVG-20010904/DTD/svg10.dtd">
<svg version="1.0" xmlns="http://www.w3.org/2000/svg"
 width="300.000000pt" height="300.000000pt" viewBox="0 0 300.000000 300.000000"
 preserveAspectRatio="xMidYMid meet">
<metadata>
Created by potrace 1.10, written by Peter Selinger 2001-2011
</metadata>
<g transform="translate(0.000000,300.000000) scale(0.100000,-0.100000)"
fill="#000000" stroke="none">
<path d="M1320 2400 c-175 -6 -205 -15 -275 -85 -42 -41 -75 -120 -75 -176 0
-33 -6 -35 -44 -15 -36 18 -71 9 -101 -26 -34 -40 -33 -82 4 -119 33 -33 90
-40 111 -14 21 25 30 17 30 -25 0 -43 -11 -50 -45 -27 -31 21 -79 4 -105 -38
-20 -32 -21 -39 -10 -66 23 -54 66 -69 140 -48 11 3 16 -8 20 -43 4 -30 14
-56 29 -72 l23 -24 -44 -31 c-24 -17 -52 -39 -63 -48 -95 -83 -139 -255 -77
-303 18 -14 18 -16 -4 -65 -33 -72 -40 -160 -17 -205 10 -19 23 -35 28 -35 6
0 24 22 41 48 37 56 71 95 97 109 18 9 18 8 1 -17 -33 -50 2 -160 73 -227 15
-15 51 -37 78 -50 47 -22 62 -23 256 -23 389 0 432 7 512 84 69 65 81 99 85
249 2 72 6 132 9 132 3 0 16 -9 30 -20 37 -29 79 -26 113 9 54 54 47 116 -18
154 -30 18 -38 18 -73 7 -21 -7 -39 -17 -39 -22 0 -5 -4 -6 -10 -3 -5 3 -10
23 -10 44 0 79 -60 105 -104 45 -16 -22 -20 -50 -24 -173 -7 -228 4 -221 -354
-221 -291 0 -290 0 -157 57 35 15 66 30 69 33 3 3 14 6 25 8 69 10 211 80 265
129 23 21 -1 15 -45 -12 -84 -51 -157 -86 -207 -99 -29 -8 -100 -35 -157 -60
-57 -25 -109 -46 -115 -46 -6 0 -24 12 -41 27 -16 15 -34 28 -40 29 -5 0 -23
2 -38 2 -86 5 89 83 383 172 248 74 385 138 500 235 l45 38 6 -42 c8 -58 50
-101 100 -101 73 0 129 82 100 146 -14 32 -69 65 -106 63 -44 -2 -48 0 -37 14
20 24 52 137 52 184 0 82 -17 83 -29 2 -16 -101 -35 -149 -82 -208 -107 -134
-253 -207 -689 -341 -201 -62 -290 -109 -377 -196 -56 -56 -74 -82 -82 -116
-9 -39 -10 -34 -8 47 3 108 25 162 97 233 92 91 200 141 505 231 274 80 406
145 526 259 73 69 100 114 104 176 2 23 9 73 16 112 10 59 10 77 -3 115 l-15
44 -7 -95 c-9 -116 -32 -172 -105 -252 -66 -72 -124 -115 -229 -168 -76 -38
-139 -60 -472 -164 -63 -19 -151 -53 -195 -74 -87 -42 -190 -128 -211 -177
-13 -30 -13 -30 -14 22 0 70 34 157 83 210 80 87 190 137 485 223 192 55 318
104 405 157 111 67 224 191 242 266 9 35 -7 35 -30 1 -13 -21 -19 -24 -26 -13
-5 8 -9 24 -9 36 0 34 -35 107 -71 147 -61 70 -93 80 -279 86 -91 3 -235 3
-320 0z m494 -50 c51 -19 115 -89 131 -143 22 -75 19 -97 -19 -139 -19 -21
-30 -40 -25 -43 20 -13 6 -34 -48 -72 -32 -22 -69 -46 -83 -53 -23 -12 -24
-12 -11 3 7 10 19 17 25 17 21 0 67 51 73 81 3 16 14 34 24 40 39 21 7 118
-53 161 -32 23 -38 23 -323 26 -186 2 -303 -1 -326 -7 -21 -6 -53 -29 -73 -51
l-36 -40 0 -223 0 -223 -32 -12 c-17 -6 -32 -11 -32 -9 -1 1 1 126 4 277 5
267 6 276 28 313 25 40 72 80 112 96 33 13 630 14 664 1z m-8 -204 c32 -32 34
-38 34 -99 l0 -65 -49 -31 c-110 -71 -214 -110 -473 -180 -80 -22 -155 -44
-166 -50 -12 -6 -23 -11 -26 -11 -3 0 -6 90 -6 199 l0 200 34 35 33 36 293 0
292 0 34 -34z m-878 -62 c32 -22 27 -73 -10 -93 -25 -14 -29 -14 -55 5 -35 26
-40 57 -14 83 25 25 49 27 79 5z m0 -201 c31 -28 35 -56 11 -86 -25 -32 -61
-35 -89 -7 -28 28 -25 64 6 89 32 26 46 26 72 4z m1211 -288 c46 -23 54 -66
20 -109 -42 -53 -123 -21 -123 49 0 27 6 43 23 56 28 23 43 24 80 4z m-181
-371 c-3 -222 -4 -242 -25 -279 -28 -52 -68 -89 -123 -114 -42 -19 -65 -21
-324 -21 -185 0 -292 4 -318 12 -60 18 -123 79 -147 144 -27 72 -26 84 14 117
l33 27 21 -29 c40 -56 64 -59 403 -53 273 4 311 7 337 23 55 33 65 68 68 227
3 132 5 146 25 172 13 15 27 24 31 20 5 -4 7 -115 5 -246z m172 126 c57 -57
-9 -152 -79 -115 -69 35 -47 135 29 135 17 0 39 -9 50 -20z"/>
<path d="M1333 2304 c-11 -30 13 -35 153 -32 131 3 139 4 139 23 0 19 -7 20
-143 22 -120 2 -144 0 -149 -13z"/>
<path d="M1730 2088 c-36 -23 -122 -79 -191 -124 -69 -45 -162 -103 -206 -130
-45 -27 -80 -50 -78 -52 10 -10 153 69 274 152 77 53 148 99 158 103 24 9 101
62 109 74 14 23 -5 16 -66 -23z"/>
<path d="M1434 955 c-19 -29 -11 -60 21 -81 46 -30 92 26 66 82 -15 34 -64 33
-87 -1z"/>
<path d="M1945 1924 c-107 -97 -222 -157 -490 -254 -93 -34 -221 -86 -284
-116 -104 -49 -231 -129 -246 -155 -4 -5 24 11 62 37 99 69 272 146 533 239
226 80 357 156 454 263 41 45 30 39 -29 -14z"/>
<path d="M1979 1704 c-72 -77 -212 -154 -419 -233 -256 -98 -360 -142 -433
-182 -97 -55 -176 -113 -201 -147 -14 -20 -9 -18 20 9 87 82 229 155 504 258
201 76 330 130 351 148 8 7 19 13 24 13 20 0 170 123 186 153 14 26 7 21 -32
-19z"/>
<path d="M1630 1320 c-8 -5 -17 -7 -21 -4 -4 2 -36 -7 -71 -20 -35 -13 -99
-34 -143 -47 -87 -24 -244 -86 -260 -102 -7 -7 -3 -7 10 -2 11 5 128 44 260
88 132 44 242 81 244 83 10 9 -6 12 -19 4z"/>
<path d="M1300 729 c-218 -9 -370 -34 -402 -67 -48 -48 6 -67 227 -79 215 -12
691 -7 819 8 124 15 157 31 135 66 -32 52 -408 87 -779 72z m370 -28 c161 -10
374 -37 400 -51 79 -43 -669 -64 -1064 -30 -158 13 -158 22 0 51 99 18 230 29
434 37 41 1 145 -2 230 -7z"/>
</g>
</svg>
